PathFileType	4	(X/Y/Z)	SUBJ51_0_static_RCNL2025.trc
DataRate	CameraRate	NumFrames	NumMarkers	Units	OrigDataRate	OrigDataStartFrame	OrigNumFrames
100	100	7	25	mm	100	16	93
Frame#	Time	R_Shoulder			L_Shoulder			C7			J_Notch			R_Elbow			L_Elbow			R_Wrist			L_Wrist			R_Asis			L_Asis			Sacral			Thoracic			Sternum			R_Thigh_Lateral			R_Knee_Lateral			R_Shank_Lateral			R_Ankle_Lateral			R_Heel			R_Toe			L_Thigh_Lateral			L_Knee_Lateral			L_Shank_Lateral			L_Ankle_Lateral			L_Heel			L_Toe		
		X1	Y1	Z1	X2	Y2	Z2	X3	Y3	Z3	X4	Y4	Z4	X5	Y5	Z5	X6	Y6	Z6	X7	Y7	Z7	X8	Y8	Z8	X9	Y9	Z9	X10	Y10	Z10	X11	Y11	Z11	X12	Y12	Z12	X13	Y13	Z13	X14	Y14	Z14	X15	Y15	Z15	X16	Y16	Z16	X17	Y17	Z17	X18	Y18	Z18	X19	Y19	Z19	X20	Y20	Z20	X21	Y21	Z21	X22	Y22	Z22	X23	Y23	Z23	X24	Y24	Z24	X25	Y25	Z25
16	0.15000000	-205.987213	1505.309570	-33.836174	-219.323013	1516.566895	-481.220551	-301.831573	1610.929199	-267.200439	-149.565994	1507.722290	-265.453552	-250.543076	1232.027710	109.136986	-246.000656	1236.167969	-633.317871	-181.346916	971.989166	113.860863	-200.979645	981.366302	-663.041138	-138.159775	1052.851929	-130.066620	-141.483368	1035.427856	-370.475220	-356.408630	1084.044922	-254.077621	-385.579193	1392.334473	-261.158264	-93.184113	1276.733276	-269.569061	-209.222076	653.080994	-41.956112	-242.100220	529.562988	-88.945030	-294.099640	320.442413	-18.200289	-332.308899	81.018776	-128.670944	-383.330963	73.895264	-184.613663	-175.135147	48.189224	-150.813110	-241.065536	647.022827	-469.158539	-267.187775	529.455444	-420.964233	-313.851746	343.231995	-460.283051	-332.123260	73.656425	-354.137177	-379.290070	80.803856	-294.887115	-173.641251	45.697990	-342.840271
17	0.16000000	-206.017212	1505.210449	-33.807735	-219.286194	1516.615845	-481.208771	-301.706726	1611.043823	-267.176727	-149.463272	1507.667114	-265.397705	-250.648972	1231.956177	109.109978	-246.093262	1236.314819	-633.378235	-181.440956	971.882599	113.679253	-201.029793	981.467285	-663.169464	-137.967285	1052.919434	-129.958542	-141.600784	1035.439575	-370.488098	-356.474243	1084.122070	-254.169891	-385.578369	1392.321655	-261.161591	-93.253387	1276.674683	-269.666412	-209.337753	653.151855	-41.962486	-242.150955	529.546509	-89.075798	-294.129761	320.445038	-18.196909	-332.310089	80.974792	-128.676727	-383.391205	73.907890	-184.675842	-175.176605	48.187893	-150.836075	-241.102692	647.023499	-469.181732	-267.197632	529.425659	-420.997833	-313.904083	343.093964	-460.172089	-332.166656	73.699829	-354.113312	-379.366028	80.865036	-294.842346	-173.636795	45.697311	-342.790985
18	0.17000000	-206.029205	1505.205078	-33.790646	-219.309143	1516.734619	-481.182220	-301.714417	1611.025269	-267.158325	-149.420547	1507.764160	-265.368195	-250.745880	1231.947388	109.043297	-246.100143	1236.411743	-633.503235	-181.461403	971.769409	113.420593	-201.154816	981.557739	-663.257874	-138.035019	1052.946899	-130.017685	-141.651535	1035.386230	-370.506958	-356.478760	1084.106079	-254.180222	-385.573700	1392.410767	-261.163788	-93.115074	1276.784058	-269.695892	-209.424286	653.161377	-41.931576	-242.150162	529.534973	-89.086830	-294.130615	320.433777	-18.179678	-332.310852	80.986977	-128.671692	-383.400879	73.929672	-184.677963	-175.143661	48.206146	-150.806335	-241.137650	647.009094	-469.231171	-267.223358	529.501709	-421.012848	-313.883362	343.103241	-460.199707	-332.107269	73.668289	-354.147125	-379.288147	80.760384	-294.910217	-173.649979	45.725094	-342.840332
19	0.18000000	-206.030838	1505.208130	-33.788956	-219.314209	1516.775513	-481.268036	-301.577759	1611.151489	-267.166290	-149.385208	1507.680176	-265.457886	-250.718414	1231.789673	108.901794	-246.147339	1236.579224	-633.591309	-181.575066	971.664307	113.241116	-201.216911	981.664917	-663.385010	-138.018814	1052.992676	-130.059128	-141.637344	1035.350220	-370.533844	-356.522858	1084.114868	-254.274582	-385.601807	1392.496826	-261.133850	-93.143623	1276.717773	-269.806244	-209.533615	653.067383	-41.962933	-242.120132	529.617432	-89.076996	-294.131714	320.488922	-18.225771	-332.392151	80.973473	-128.741531	-383.402710	73.916275	-184.673416	-175.072449	48.253906	-150.847519	-241.139114	647.011353	-469.245392	-267.266266	529.364136	-421.067566	-313.860565	343.229401	-460.332306	-332.105377	73.676208	-354.139221	-379.272919	80.776390	-294.906586	-173.607193	45.704937	-342.837097
20	0.19000000	-205.994385	1505.117920	-33.779789	-219.243912	1516.869751	-481.199554	-301.498840	1611.118896	-267.085510	-149.259125	1507.734863	-265.368927	-250.783447	1231.770386	108.843117	-246.179428	1236.590820	-633.599915	-181.654228	971.508575	113.083076	-201.276665	981.781799	-663.521240	-138.388611	1052.885620	-130.234528	-141.740417	1035.330566	-370.573822	-356.593140	1084.112427	-254.340836	-385.604889	1392.563721	-261.137115	-93.027351	1276.793213	-269.759338	-209.590057	653.092834	-41.960796	-242.220551	529.617676	-88.990593	-294.211609	320.401886	-18.275854	-332.400116	80.973022	-128.745087	-383.401337	73.913734	-184.673447	-175.123276	48.201008	-150.802475	-241.136597	647.019714	-469.237671	-267.234802	529.482727	-421.039215	-313.722351	343.398163	-460.442963	-332.116211	73.660088	-354.127533	-379.348846	80.781609	-294.871399	-173.635239	45.742569	-342.789459
21	0.20000000	-205.939087	1505.092041	-33.820114	-219.225082	1516.965820	-481.141754	-301.499390	1611.101318	-267.093750	-149.116699	1507.740845	-265.337952	-250.855255	1231.684326	108.776367	-246.315842	1236.794189	-633.710571	-181.745979	971.439209	112.913097	-201.437088	981.930359	-663.679413	-138.238007	1053.055054	-130.038437	-141.760696	1035.362305	-370.574829	-356.599976	1084.089600	-254.359161	-385.598480	1392.522827	-261.151978	-92.857689	1276.872437	-269.963104	-209.675735	653.109558	-41.965626	-242.288910	529.614929	-89.110039	-294.248566	320.434723	-18.263824	-332.332458	80.964493	-128.669250	-383.404083	73.900146	-184.670944	-175.135071	48.194153	-150.806427	-241.008484	647.009094	-469.454102	-267.168549	529.471741	-421.028503	-313.581177	343.177948	-460.325867	-332.164764	73.696228	-354.092957	-379.351532	80.818146	-294.855011	-173.684540	45.665821	-342.823242
22	0.21000000	-205.879333	1505.089233	-33.745369	-219.158340	1516.989380	-481.168182	-301.396637	1611.161377	-267.019775	-149.098022	1507.759766	-265.345123	-250.841873	1231.673218	108.742012	-246.272476	1236.926636	-633.775757	-181.819649	971.320709	112.801060	-201.593849	982.041351	-663.810120	-138.226868	1053.097778	-130.041168	-141.706741	1035.330078	-370.422211	-356.634583	1084.090210	-254.441406	-385.580750	1392.514038	-261.176025	-92.882034	1276.866821	-269.908478	-209.730774	653.111450	-41.953239	-242.295471	529.580750	-89.115334	-294.264282	320.434662	-18.259453	-332.337219	80.962135	-128.672424	-383.404907	73.914696	-184.668030	-175.083984	48.202259	-150.762390	-241.130478	647.026245	-469.240997	-267.155182	529.421875	-420.983185	-313.561615	343.090942	-460.318787	-332.182251	73.728195	-354.057068	-379.385712	80.837616	-294.827515	-173.668488	45.685719	-342.766205
